<!-- Generated by IcoMoon.io -->
<svg version="1.1" xmlns="http://www.w3.org/2000/svg" width="576" height="512" viewBox="0 0 576 512">
<title></title>
<g id="icomoon-ignore">
    <line stroke-width="1" x1="16" y1="0" x2="16" y2="512" stroke="#AD8E6A" opacity="0.3"></line>
    <line stroke-width="1" x1="32" y1="0" x2="32" y2="512" stroke="#AD8E6A" opacity="1"></line>
    <line stroke-width="1" x1="48" y1="0" x2="48" y2="512" stroke="#AD8E6A" opacity="0.3"></line>
    <line stroke-width="1" x1="64" y1="0" x2="64" y2="512" stroke="#AD8E6A" opacity="1"></line>
    <line stroke-width="1" x1="80" y1="0" x2="80" y2="512" stroke="#AD8E6A" opacity="0.3"></line>
    <line stroke-width="1" x1="96" y1="0" x2="96" y2="512" stroke="#AD8E6A" opacity="1"></line>
    <line stroke-width="1" x1="112" y1="0" x2="112" y2="512" stroke="#AD8E6A" opacity="0.3"></line>
    <line stroke-width="1" x1="128" y1="0" x2="128" y2="512" stroke="#AD8E6A" opacity="1"></line>
    <line stroke-width="1" x1="144" y1="0" x2="144" y2="512" stroke="#AD8E6A" opacity="0.3"></line>
    <line stroke-width="1" x1="160" y1="0" x2="160" y2="512" stroke="#AD8E6A" opacity="1"></line>
    <line stroke-width="1" x1="176" y1="0" x2="176" y2="512" stroke="#AD8E6A" opacity="0.3"></line>
    <line stroke-width="1" x1="192" y1="0" x2="192" y2="512" stroke="#AD8E6A" opacity="1"></line>
    <line stroke-width="1" x1="208" y1="0" x2="208" y2="512" stroke="#AD8E6A" opacity="0.3"></line>
    <line stroke-width="1" x1="224" y1="0" x2="224" y2="512" stroke="#AD8E6A" opacity="1"></line>
    <line stroke-width="1" x1="240" y1="0" x2="240" y2="512" stroke="#AD8E6A" opacity="0.3"></line>
    <line stroke-width="1" x1="256" y1="0" x2="256" y2="512" stroke="#AD8E6A" opacity="1"></line>
    <line stroke-width="1" x1="272" y1="0" x2="272" y2="512" stroke="#AD8E6A" opacity="0.3"></line>
    <line stroke-width="1" x1="288" y1="0" x2="288" y2="512" stroke="#AD8E6A" opacity="1"></line>
    <line stroke-width="1" x1="304" y1="0" x2="304" y2="512" stroke="#AD8E6A" opacity="0.3"></line>
    <line stroke-width="1" x1="320" y1="0" x2="320" y2="512" stroke="#AD8E6A" opacity="1"></line>
    <line stroke-width="1" x1="336" y1="0" x2="336" y2="512" stroke="#AD8E6A" opacity="0.3"></line>
    <line stroke-width="1" x1="352" y1="0" x2="352" y2="512" stroke="#AD8E6A" opacity="1"></line>
    <line stroke-width="1" x1="368" y1="0" x2="368" y2="512" stroke="#AD8E6A" opacity="0.3"></line>
    <line stroke-width="1" x1="384" y1="0" x2="384" y2="512" stroke="#AD8E6A" opacity="1"></line>
    <line stroke-width="1" x1="400" y1="0" x2="400" y2="512" stroke="#AD8E6A" opacity="0.3"></line>
    <line stroke-width="1" x1="416" y1="0" x2="416" y2="512" stroke="#AD8E6A" opacity="1"></line>
    <line stroke-width="1" x1="432" y1="0" x2="432" y2="512" stroke="#AD8E6A" opacity="0.3"></line>
    <line stroke-width="1" x1="448" y1="0" x2="448" y2="512" stroke="#AD8E6A" opacity="1"></line>
    <line stroke-width="1" x1="464" y1="0" x2="464" y2="512" stroke="#AD8E6A" opacity="0.3"></line>
    <line stroke-width="1" x1="480" y1="0" x2="480" y2="512" stroke="#AD8E6A" opacity="1"></line>
    <line stroke-width="1" x1="496" y1="0" x2="496" y2="512" stroke="#AD8E6A" opacity="0.3"></line>
    <line stroke-width="1" x1="512" y1="0" x2="512" y2="512" stroke="#AD8E6A" opacity="1"></line>
    <line stroke-width="1" x1="528" y1="0" x2="528" y2="512" stroke="#AD8E6A" opacity="0.3"></line>
    <line stroke-width="1" x1="544" y1="0" x2="544" y2="512" stroke="#AD8E6A" opacity="1"></line>
    <line stroke-width="1" x1="560" y1="0" x2="560" y2="512" stroke="#AD8E6A" opacity="0.3"></line>
    <line stroke-width="1" x1="0" y1="16" x2="576" y2="16" stroke="#AD8E6A" opacity="0.3"></line>
    <line stroke-width="1" x1="0" y1="32" x2="576" y2="32" stroke="#AD8E6A" opacity="1"></line>
    <line stroke-width="1" x1="0" y1="48" x2="576" y2="48" stroke="#AD8E6A" opacity="0.3"></line>
    <line stroke-width="1" x1="0" y1="64" x2="576" y2="64" stroke="#AD8E6A" opacity="1"></line>
    <line stroke-width="1" x1="0" y1="80" x2="576" y2="80" stroke="#AD8E6A" opacity="0.3"></line>
    <line stroke-width="1" x1="0" y1="96" x2="576" y2="96" stroke="#AD8E6A" opacity="1"></line>
    <line stroke-width="1" x1="0" y1="112" x2="576" y2="112" stroke="#AD8E6A" opacity="0.3"></line>
    <line stroke-width="1" x1="0" y1="128" x2="576" y2="128" stroke="#AD8E6A" opacity="1"></line>
    <line stroke-width="1" x1="0" y1="144" x2="576" y2="144" stroke="#AD8E6A" opacity="0.3"></line>
    <line stroke-width="1" x1="0" y1="160" x2="576" y2="160" stroke="#AD8E6A" opacity="1"></line>
    <line stroke-width="1" x1="0" y1="176" x2="576" y2="176" stroke="#AD8E6A" opacity="0.3"></line>
    <line stroke-width="1" x1="0" y1="192" x2="576" y2="192" stroke="#AD8E6A" opacity="1"></line>
    <line stroke-width="1" x1="0" y1="208" x2="576" y2="208" stroke="#AD8E6A" opacity="0.3"></line>
    <line stroke-width="1" x1="0" y1="224" x2="576" y2="224" stroke="#AD8E6A" opacity="1"></line>
    <line stroke-width="1" x1="0" y1="240" x2="576" y2="240" stroke="#AD8E6A" opacity="0.3"></line>
    <line stroke-width="1" x1="0" y1="256" x2="576" y2="256" stroke="#AD8E6A" opacity="1"></line>
    <line stroke-width="1" x1="0" y1="272" x2="576" y2="272" stroke="#AD8E6A" opacity="0.3"></line>
    <line stroke-width="1" x1="0" y1="288" x2="576" y2="288" stroke="#AD8E6A" opacity="1"></line>
    <line stroke-width="1" x1="0" y1="304" x2="576" y2="304" stroke="#AD8E6A" opacity="0.3"></line>
    <line stroke-width="1" x1="0" y1="320" x2="576" y2="320" stroke="#AD8E6A" opacity="1"></line>
    <line stroke-width="1" x1="0" y1="336" x2="576" y2="336" stroke="#AD8E6A" opacity="0.3"></line>
    <line stroke-width="1" x1="0" y1="352" x2="576" y2="352" stroke="#AD8E6A" opacity="1"></line>
    <line stroke-width="1" x1="0" y1="368" x2="576" y2="368" stroke="#AD8E6A" opacity="0.3"></line>
    <line stroke-width="1" x1="0" y1="384" x2="576" y2="384" stroke="#AD8E6A" opacity="1"></line>
    <line stroke-width="1" x1="0" y1="400" x2="576" y2="400" stroke="#AD8E6A" opacity="0.3"></line>
    <line stroke-width="1" x1="0" y1="416" x2="576" y2="416" stroke="#AD8E6A" opacity="1"></line>
    <line stroke-width="1" x1="0" y1="432" x2="576" y2="432" stroke="#AD8E6A" opacity="0.3"></line>
    <line stroke-width="1" x1="0" y1="448" x2="576" y2="448" stroke="#AD8E6A" opacity="1"></line>
    <line stroke-width="1" x1="0" y1="464" x2="576" y2="464" stroke="#AD8E6A" opacity="0.3"></line>
    <line stroke-width="1" x1="0" y1="480" x2="576" y2="480" stroke="#AD8E6A" opacity="1"></line>
    <line stroke-width="1" x1="0" y1="496" x2="576" y2="496" stroke="#AD8E6A" opacity="0.3"></line>
</g>
<path d="M112 64h-96c-8.8 0-16 7.2-16 16v352c0 8.8 7.2 16 16 16h96c8.8 0 16-7.2 16-16v-352c0-8.8-7.2-16-16-16zM96 160h-64v-32h64v32z"></path>
<path d="M272 64h-96c-8.8 0-16 7.2-16 16v352c0 8.8 7.2 16 16 16h96c8.8 0 16-7.2 16-16v-352c0-8.8-7.2-16-16-16zM256 160h-64v-32h64v32z"></path>
<path d="M382.544 88.74l-85.732 43.197c-7.858 3.959-11.048 13.629-7.089 21.488l143.989 285.774c3.959 7.859 13.629 11.049 21.488 7.089l85.732-43.196c7.858-3.96 11.048-13.63 7.089-21.487l-143.989-285.775c-3.96-7.859-13.63-11.050-21.488-7.090z"></path>
</svg>
